HIERARCHY
ROOT hip
{
  OFFSET 0 0 0
  CHANNELS 6 Xposition Yposition Zposition Zrotation Yrotation Xrotation
  JOINT abdomen
  {
    OFFSET 0 20.6881 -0.73152
    CHANNELS 3 Zrotation Xrotation Yrotation
    JOINT chest
    {
      OFFSET 0 11.7043 -0.48768
      CHANNELS 3 Zrotation Xrotation Yrotation
      JOINT neck
      {
        OFFSET 0 22.1894 -2.19456
        CHANNELS 3 Zrotation Xrotation Yrotation
        JOINT head
        {
          OFFSET -0.24384 7.07133 1.2192
          CHANNELS 3 Zrotation Xrotation Yrotation
          JOINT leftEye
          {
            OFFSET 4.14528 8.04674 8.04672
            CHANNELS 3 Zrotation Xrotation Yrotation
            End Site
            {
              OFFSET 1 0 0
            }
          }
          JOINT rightEye
          {
            OFFSET -3.6576 8.04674 8.04672
            CHANNELS 3 Zrotation Xrotation Yrotation
            End Site
            {
              OFFSET 1 0 0
            }
          }
        }
      }
      JOINT rCollar
      {
        OFFSET -2.68224 19.2634 -4.8768
        CHANNELS 3 Zrotation Xrotation Yrotation
        JOINT rShldr
        {
          OFFSET -8.77824 -1.95073 1.46304
          CHANNELS 3 Zrotation Xrotation Yrotation
          JOINT rForeArm
          {
            OFFSET -28.1742 -1.7115 0.48768
            CHANNELS 3 Zrotation Xrotation Yrotation
            JOINT rHand
            {
              OFFSET -22.5879 0.773209 7.07136
              CHANNELS 3 Zrotation Xrotation Yrotation
              JOINT rThumb1
              {
                OFFSET -1.2192 -0.487915 3.41376
                CHANNELS 3 Zrotation Xrotation Yrotation
                JOINT rThumb2
                {
                  OFFSET -3.37035 -0.52449 3.41376
                  CHANNELS 3 Zrotation Xrotation Yrotation
                  End Site
                  {
                    OFFSET -1.78271 -1.18214 1.43049
                  }
                }
              }
              JOINT rIndex1
              {
                OFFSET -7.75947 0.938293 5.60832
                CHANNELS 3 Zrotation Xrotation Yrotation
                JOINT rIndex2
                {
                  OFFSET -2.54057 -0.884171 1.56538
                  CHANNELS 3 Zrotation Xrotation Yrotation
                  End Site
                  {
                    OFFSET -1.62519 -0.234802 1.16502
                  }
                }
              }
              JOINT rMid1
              {
                OFFSET -8.24714 1.18213 3.41376
                CHANNELS 3 Zrotation Xrotation Yrotation
                JOINT rMid2
                {
                  OFFSET -3.10165 -0.590103 1.0647
                  CHANNELS 3 Zrotation Xrotation Yrotation
                  End Site
                  {
                    OFFSET -2.48547 -0.328903 0.83742
                  }
                }
              }
              JOINT rRing1
              {
                OFFSET -8.82822 0.546677 1.51678
                CHANNELS 3 Zrotation Xrotation Yrotation
                JOINT rRing2
                {
                  OFFSET -2.60934 -0.819778 -0.0198488
                  CHANNELS 3 Zrotation Xrotation Yrotation
                  End Site
                  {
                    OFFSET -2.33842 -0.294052 0.168128
                  }
                }
              }
              JOINT rPinky1
              {
                OFFSET -8.27202 -0.0477905 -0.4584
                CHANNELS 3 Zrotation Xrotation Yrotation
                JOINT rPinky2
                {
                  OFFSET -1.82734 -0.647385 -0.700984
                  CHANNELS 3 Zrotation Xrotation Yrotation
                  End Site
                  {
                    OFFSET -1.69225 -0.51767 -0.607171
                  }
                }
              }
            }
          }
        }
      }
      JOINT lCollar
      {
        OFFSET 2.68224 19.2634 -4.8768
        CHANNELS 3 Zrotation Xrotation Yrotation
        JOINT lShldr
        {
          OFFSET 8.77824 -1.95073 1.46304
          CHANNELS 3 Zrotation Xrotation Yrotation
          JOINT lForeArm
          {
            OFFSET 28.1742 -1.7115 0.48768
            CHANNELS 3 Zrotation Xrotation Yrotation
            JOINT lHand
            {
              OFFSET 22.5879 0.773209 7.07136
              CHANNELS 3 Zrotation Xrotation Yrotation
              JOINT lThumb1
              {
                OFFSET 1.2192 -0.487915 3.41376
                CHANNELS 3 Zrotation Xrotation Yrotation
                JOINT lThumb2
                {
                  OFFSET 3.37035 -0.52449 3.41376
                  CHANNELS 3 Zrotation Xrotation Yrotation
                  End Site
                  {
                    OFFSET 1.78271 -1.18214 1.43049
                  }
                }
              }
              JOINT lIndex1
              {
                OFFSET 7.75947 0.938293 5.60832
                CHANNELS 3 Zrotation Xrotation Yrotation
                JOINT lIndex2
                {
                  OFFSET 2.54057 -0.884171 1.56538
                  CHANNELS 3 Zrotation Xrotation Yrotation
                  End Site
                  {
                    OFFSET 1.62519 -0.234802 1.16502
                  }
                }
              }
              JOINT lMid1
              {
                OFFSET 8.24714 1.18213 3.41376
                CHANNELS 3 Zrotation Xrotation Yrotation
                JOINT lMid2
                {
                  OFFSET 3.10165 -0.590103 1.0647
                  CHANNELS 3 Zrotation Xrotation Yrotation
                  End Site
                  {
                    OFFSET 2.48547 -0.328903 0.83742
                  }
                }
              }
              JOINT lRing1
              {
                OFFSET 8.82822 0.546677 1.51678
                CHANNELS 3 Zrotation Xrotation Yrotation
                JOINT lRing2
                {
                  OFFSET 2.60934 -0.819778 -0.0198488
                  CHANNELS 3 Zrotation Xrotation Yrotation
                  End Site
                  {
                    OFFSET 2.33842 -0.294052 0.168128
                  }
                }
              }
              JOINT lPinky1
              {
                OFFSET 8.27202 -0.0477905 -0.4584
                CHANNELS 3 Zrotation Xrotation Yrotation
                JOINT lPinky2
                {
                  OFFSET 1.82734 -0.647385 -0.700984
                  CHANNELS 3 Zrotation Xrotation Yrotation
                  End Site
                  {
                    OFFSET 1.69225 -0.51767 -0.607171
                  }
                }
              }
            }
          }
        }
      }
    }
  }
  JOINT rButtock
  {
    OFFSET -8.77824 4.35084 1.2192
    CHANNELS 3 Zrotation Xrotation Yrotation
    JOINT rThigh
    {
      OFFSET 0 -1.70687 -2.19456
      CHANNELS 3 Zrotation Xrotation Yrotation
      JOINT rShin
      {
        OFFSET 0 -36.8199 0.73152
        CHANNELS 3 Zrotation Xrotation Yrotation
        JOINT rFoot
        {
          OFFSET 0.73152 -45.1104 -5.12064
          CHANNELS 3 Zrotation Xrotation Yrotation
          End Site
          {
            OFFSET -1.1221 -3.69964 12.103
          }
        }
      }
    }
  }
  JOINT lButtock
  {
    OFFSET 8.77824 4.35084 1.2192
    CHANNELS 3 Zrotation Xrotation Yrotation
    JOINT lThigh
    {
      OFFSET 0 -1.70687 -2.19456
      CHANNELS 3 Zrotation Xrotation Yrotation
      JOINT lShin
      {
        OFFSET 0 -36.8199 0.73152
        CHANNELS 3 Zrotation Xrotation Yrotation
        JOINT lFoot
        {
          OFFSET -0.73152 -45.1104 -5.12064
          CHANNELS 3 Zrotation Xrotation Yrotation
          End Site
          {
            OFFSET 1.1221 -3.69964 12.103
          }
        }
      }
    }
  }
}
MOTION
Frames:	4
Frame Time:	0.03333
-1.4268483966588974 33.26253294944763 0.05088230827823281 -2.7243266049483092 2.3804827158554085 1.3745143122059476 -0.0642869677677765 8.567305205206571 1.864624141053733 2.2090906445781626 -4.212451722487311 0.6738822583259136 -2.9012060928934256 7.602162763216979 -0.8088573084133851 4.382505503574056 -13.537551048181163 -2.0071928140335245 0.38285918361205673 0.6003720272185341 -1.1140555069346778 -0.5560257433717569 0.9268399150629226 0.42678162220432286 0.4757694197985204 0.9893976176710694 0.7680243564817861 23.751537168876 16.63838862947525 8.323938734889845 -12.347101156040361 -15.271556785981687 33.31270405398477 -2.205528700926001 -5.544110653076247 -2.358153119911344 0.5608648790378581 0.3584508089219286 0.6368561230003918 -0.04934742306225454 0.7872243917646622 1.2557193932928545 -0.08831785444434244 0.033827739164104635 0.1192379073735786 3.9320383061124367 1.7581203609954894 0.9535742359697046 0.6445722090500965 -0.10891883889922482 0.20174556535091448 1.677002046204656 1.481536653032583 -0.9685893396429198 0.19520050989832333 -0.3259458052597057 0.015126659538763236 5.047686100897374 -0.6466433038333441 -0.883964629847784 -0.11155707950742158 0.19141458406615286 1.1018640461530282 1.3667883010376054 0.3604004010431441 -0.29828169817172934 0.4743758477644262 0.7897312312726156 0.23947502339796245 -29.916880847721586 16.42078221761323 -11.659146573590107 12.43561272372091 -14.593262652338769 -31.03882138116622 2.145941703719987 -5.870606502007551 2.521812990161312 0.9256220069565447 0.12456146620243497 0.4941333972383046 0.22471663878800452 1.1674035532207088 0.3692856500601109 0.13024991988357132 -0.1019910260488485 -0.6027285492038943 -3.7803287055890524 2.8848162002063336 -0.09190298338708511 0.8287949507657697 0.7003538303930616 -0.9204070508035342 -1.2260038015350678 -1.0589015159434134 -1.1738582954297823 -0.27207130079905495 0.5006393125053004 0.2846121150845802 -4.873504324231002 -0.7150459941845823 0.29956526680758927 0.7550617246541598 -0.9612306645858772 -0.7145463231581135 -1.0835539098138107 0.6528556276877352 -0.09670117793880584 -0.813108140676366 0.6268775367881206 -0.3285495213960821 -15.574390298307128 -18.37882840547393 -14.545550365891645 -2.7669271351319136 31.511036754718805 3.594515970539794 -1.7539741160041742 -5.438384447366328 -4.622505971290434 0.7116251899883166 -1.2881894722768605 0.0936022997680299 18.154098106307583 -18.34042395931824 16.164453755799116 2.3755218640838636 31.14615780397297 -2.621360435993309 3.442180127046884 -4.31612801767258 6.620527121929101
-2.5292733684182167 39.69740569591522 0.046078418381512165 -3.426758840561465 3.0060947466563728 1.4739386011894728 -0.549030615805459 10.049265009802577 2.2815973714860793 2.464870129937739 -5.522155863762888 0.8296210301293709 -3.07491829405436 9.347524544286296 -1.3724976988535014 5.316717007020421 -16.049750973972504 -2.783230796680734 0.3177184155176022 0.32553172504127365 -0.7937272121021903 -0.2900334176557191 0.7382803767502616 0.41590542640515027 0.38544534402783215 0.6530019965072145 0.5722725222513958 29.261684706304358 19.82982183992039 9.981816037975054 -14.861552482936869 -18.3095019853983 40.519892345425546 -2.684565512468726 -6.889762079953602 -2.901092967885297 0.4251495538382336 0.18786061786149835 0.4603765212868388 -0.23375057782155131 0.7139035383241918 1.106431414995357 0.004593502320031915 -0.06454742209073612 0.08718425648553188 4.8036400267582335 2.562987291468853 0.8598768471618234 0.6087397560037402 -0.28103202874243566 0.255401877284095 1.795895575973891 1.3360900158129831 -0.8111398722566387 0.019856907381960897 -0.32614430763245916 0.0591867707990141 6.245951010109139 -0.39201289107991677 -0.76191955474597 -0.04650366312914916 0.035093965522775085 0.861930919832999 1.5220135279928424 0.09591506585401968 -0.26435513470807104 0.37875197208463124 0.6766290615893166 0.1475076734820779 -36.16607363636554 19.868525106852267 -14.809400573529237 14.892841579524697 -17.601382123197226 -38.14487164647203 2.8060116119968423 -7.60403252750227 2.9198996803215156 0.6933315955134952 0.027455092627203404 0.2718646342158092 0.14163389755885206 0.9170160753240344 0.26513668443993504 0.22195983036468456 -0.13320382995725638 -0.40692346084231906 -4.540973576281169 3.529490648650569 -0.1560502524419937 0.6470056240244721 0.6947672692605201 -0.8585372763108546 -1.5935125885547705 -0.6206185221874502 -0.8540732674405753 -0.35233920367736876 0.29794245654947654 -0.05002601302846589 -5.9391333630634655 -0.3692998974078327 0.1050230697513788 0.8352484123143739 -0.8059729942320828 -0.5535454775685431 -1.5622822956268276 0.2951525377169379 0.10735323147541095 -0.5925046097900314 0.6224306567516191 -0.2830236692157291 -19.19549192641755 -22.389421571004327 -17.57435847974607 -3.537110791886776 38.42999106318504 4.167957308912908 -2.3931979667690335 -6.562019294611948 -5.907338405590234 0.6354937670652387 -0.9446658550230097 -0.025087925151691524 22.477544671675833 -21.841551607110095 19.483380984839002 2.8817261799371376 38.219447066924815 -3.5334265451597884 3.9184667202316215 -5.531412050748725 8.181367073702292
-3.3885358832776546 44.76331174373627 0.028555456083267927 -4.034653787542239 3.489273854487299 1.674546379754625 -0.94912009885721 11.162743792639212 2.6404051378334206 2.599732641986464 -6.52696505624415 0.9647567497448963 -3.3341444636238537 10.742760583217006 -1.8158045101874205 6.034440542081354 -18.036709352589867 -3.3597869147587858 0.23327937481009975 0.15694478043964058 -0.5527185444312956 -0.1581032979167511 0.5991211421050697 0.35975564185766545 0.287590931336352 0.4250444863188918 0.45239309736415173 33.645559662807 22.34960669078503 11.363262778745154 -16.909369554606336 -20.821222090400447 46.37261314331777 -3.0874469954262787 -7.9300178197931155 -3.4156943609928674 0.3074070176658515 0.053983627404812266 0.3670758704202002 -0.30336439945085014 0.5766348786969183 0.8990370964378568 0.0774817593261172 -0.0836231799472297 0.06854664459212405 5.497740071914208 3.231725136689278 0.732433094490496 0.5050154894117216 -0.3158193561240742 0.2707034220156277 1.9687909291987742 1.2236442913419459 -0.5951410628096564 -0.06611804543472172 -0.31340304330304997 0.08375213311834676 7.175996525048619 -0.165980853907303 -0.6263637784964887 -0.012060233104178121 -0.07336204801890203 0.651624699533252 1.6838130254676282 -0.11130892486105326 -0.20936984405322054 0.29560626504906773 0.5510030997325646 0.10877009552179193 -41.18233873264674 22.606814539454785 -17.401935476790978 16.826403246758193 -20.008284437649067 -43.87896913395406 3.281404731060777 -9.030570469625502 3.240947813059499 0.5319799556770213 -0.039123350246259486 0.09376947932013655 0.07683458556204527 0.7044324138229113 0.21569470594635815 0.22239317385101015 -0.11743198934877136 -0.2613358976102345 -5.193219929750597 3.988512871491041 -0.18584948733668663 0.48250190524689024 0.6458109812499546 -0.7587118204352968 -1.8949512481856472 -0.2578309967098131 -0.6396081556273782 -0.36093264887030263 0.18946469846024644 -0.17656433874794353 -6.859883417429382 -0.09150468464089552 0.03859179611018853 0.7888373302649901 -0.660901697251716 -0.422793245296285 -1.8541451367630524 0.058586267770901715 0.20646525274781974 -0.4066608187243909 0.5612099636735024 -0.24793266522028942 -22.128412722061462 -25.547366363948893 -20.001017116372175 -4.113133941766155 43.95829153588 4.661854264212054 -2.891923012037732 -7.441116294098188 -6.898819764566685 0.5314142239146737 -0.6936250268435413 -0.08743906789829832 25.98284214995598 -24.605978466118962 22.113905400264354 3.384808032122658 43.850487245115104 -4.238799604097458 4.264889646066437 -6.563046811195212 9.493452389677266
-4.059320036321878 48.77140522003174 0.021986709907650948 -4.539099543127646 3.877170969622901 1.8845358500316125 -1.2998812620320415 12.014517901011285 2.9394417053105686 2.6611456475783988 -7.293544080664539 1.067563903358282 -3.6092922310354707 11.854737578209884 -2.1585346515587864 6.600573578042555 -19.613699286655553 -3.7770574718634395 0.150536168687891 0.05720539561979555 -0.37876782025793976 -0.10515321687157927 0.49515258952851743 0.2905324216715267 0.1921515241250002 0.27776447691567213 0.36131871464096704 37.14608283885731 24.332016163415165 12.518337413627167 -18.578218702819527 -22.88349696499554 51.127544956670526 -3.430302428080232 -8.737871250481067 -3.8629607610546897 0.21652137227934123 -0.0338003116857188 0.31934858957341383 -0.32058661472133154 0.43309335732764936 0.6748050809158058 0.12851063622381137 -0.06093329152444735 0.05323650876327601 6.0415755284430785 3.7913163455294874 0.6080366734060519 0.3881168551278063 -0.2980319960606272 0.25993626911933726 2.1413513897109153 1.1355526735736468 -0.3846603525209567 -0.10360863362380436 -0.29191532153504274 0.08599112782521512 7.91827757838351 0.021112328167920975 -0.4774935623162726 0.00010646824173021829 -0.14461079281991981 0.47507450141132446 1.8274126301252687 -0.2796178060582728 -0.16170051309267353 0.2271329782894552 0.43703493676770205 0.09226142157616532 -45.22600879678022 24.79337153618743 -19.510623194343598 18.367019008398977 -21.93353547220995 -48.49478023919741 3.6378654736545726 -10.1950664966939 3.4885133556119006 0.4185208018878834 -0.08411522037173508 -0.046724256894999414 0.020594461090616495 0.5249496633086683 0.19491609655241576 0.17407425454779787 -0.08040793509651231 -0.14645846571211404 -5.758631526980715 4.33682092953678 -0.2099594948178763 0.3302609907112728 0.5721551283750362 -0.6506023589527186 -2.1450529253542387 0.034589145174002384 -0.4906413029425769 -0.3291903585588733 0.13125462470222432 -0.21117461481969063 -7.627714500901997 0.11204968022088231 0.01568451557272936 0.6847618959000977 -0.5333990341987972 -0.3070259144545059 -2.0325695281210607 -0.10624295220931365 0.2501182190329877 -0.26181491798663453 0.48914405077131606 -0.21337847140493046 -24.50798574209679 -28.069353950820865 -21.965464899032465 -4.546485965828192 48.387351608836866 5.076656775148806 -3.3017727820525784 -8.132096650350759 -7.6852921418315585 0.4107973787209063 -0.5004841391450942 -0.10707692897914278 28.805714937692645 -26.802063576743773 24.210852022633723 3.8362841765907354 48.35109013453327 -4.793150990627209 4.50599020112601 -7.417386509374271 10.57603225048241
